<svg width="125" height="26" viewBox="0 0 125 26" fill="none" xmlns="http://www.w3.org/2000/svg">
<path d="M0.517669 13.4576C0.517669 11.083 0.992581 8.96854 1.94241 7.11412C2.91484 5.2597 4.29435 3.82366 6.08092 2.80599C7.8675 1.7657 9.97068 1.24556 12.3905 1.24556C14.471 1.24556 16.3255 1.64132 17.9537 2.43284C19.6046 3.20175 20.9389 4.29857 21.9566 5.7233C22.9968 7.14804 23.6866 8.81023 24.0258 10.7099H16.088C15.7262 9.91836 15.206 9.30776 14.5276 8.87808C13.8717 8.42578 13.1141 8.19963 12.2548 8.19963C10.9883 8.19963 9.98199 8.67454 9.2357 9.62437C8.51202 10.5742 8.15019 11.8519 8.15019 13.4576C8.15019 15.0632 8.51202 16.341 9.2357 17.2908C9.98199 18.2406 10.9883 18.7155 12.2548 18.7155C13.1141 18.7155 13.8717 18.5007 14.5276 18.071C15.206 17.6187 15.7262 16.9968 16.088 16.2053H24.0258C23.6866 18.1049 22.9968 19.7671 21.9566 21.1919C20.9389 22.6166 19.6046 23.7247 17.9537 24.5163C16.3255 25.2852 14.471 25.6696 12.3905 25.6696C9.97068 25.6696 7.8675 25.1608 6.08092 24.1431C4.29435 23.1028 2.91484 21.6555 1.94241 19.8011C0.992581 17.9466 0.517669 15.8321 0.517669 13.4576ZM34.268 0.397504V25.5H26.7372V0.397504H34.268ZM36.6515 15.9339C36.6515 13.9212 36.9908 12.1798 37.6692 10.7099C38.3703 9.2173 39.3201 8.08656 40.5187 7.31765C41.7173 6.52613 43.0628 6.13037 44.5554 6.13037C45.7992 6.13037 46.8735 6.39044 47.778 6.91058C48.6826 7.40811 49.3724 8.09786 49.8473 8.97984V6.36783H57.3441V25.5H49.8473V22.888C49.3724 23.77 48.6826 24.471 47.778 24.9912C46.8735 25.4887 45.7992 25.7375 44.5554 25.7375C43.0628 25.7375 41.7173 25.353 40.5187 24.5841C39.3201 23.7926 38.3703 22.6618 37.6692 21.1919C36.9908 19.6993 36.6515 17.9466 36.6515 15.9339ZM49.8473 15.9339C49.8473 14.9162 49.5872 14.1247 49.0671 13.5594C48.5469 12.994 47.8798 12.7113 47.0657 12.7113C46.2515 12.7113 45.5844 12.994 45.0643 13.5594C44.5441 14.1247 44.284 14.9162 44.284 15.9339C44.284 16.9516 44.5441 17.7431 45.0643 18.3085C45.5844 18.8738 46.2515 19.1565 47.0657 19.1565C47.8798 19.1565 48.5469 18.8738 49.0671 18.3085C49.5872 17.7431 49.8473 16.9516 49.8473 15.9339ZM69.2403 25.7375C67.4311 25.7375 65.8254 25.4435 64.4233 24.8555C63.0438 24.2675 61.947 23.4534 61.1328 22.4131C60.3187 21.3728 59.8551 20.1968 59.742 18.8852H66.9675C67.0579 19.4505 67.2954 19.8689 67.6798 20.1403C68.0869 20.4117 68.5957 20.5473 69.2063 20.5473C69.5908 20.5473 69.8961 20.4682 70.1222 20.3099C70.3484 20.129 70.4615 19.9141 70.4615 19.6654C70.4615 19.2357 70.224 18.9304 69.7491 18.7495C69.2742 18.5685 68.4713 18.365 67.3406 18.1389C65.9611 17.8675 64.819 17.5735 63.9145 17.2569C63.0325 16.9403 62.2523 16.3975 61.5738 15.6286C60.918 14.8597 60.5901 13.7968 60.5901 12.4399C60.5901 11.2639 60.8954 10.201 61.506 9.25122C62.1392 8.27878 63.0664 7.52119 64.2876 6.97843C65.5088 6.41306 66.9901 6.13037 68.7314 6.13037C71.3095 6.13037 73.3222 6.76359 74.7696 8.03002C76.2396 9.29645 77.1215 10.9473 77.4155 12.9827H70.7328C70.6198 12.4625 70.3823 12.0668 70.0205 11.7954C69.6586 11.5014 69.1724 11.3544 68.5618 11.3544C68.1774 11.3544 67.8834 11.4336 67.6798 11.5919C67.4763 11.7275 67.3745 11.9424 67.3745 12.2364C67.3745 12.6208 67.612 12.9148 68.0869 13.1184C68.5618 13.2993 69.3194 13.4915 70.3597 13.695C71.7392 13.9664 72.9039 14.2717 73.8537 14.6109C74.8035 14.9502 75.629 15.5382 76.33 16.3749C77.0311 17.189 77.3816 18.3198 77.3816 19.7671C77.3816 20.8979 77.0537 21.9155 76.3979 22.8201C75.742 23.7247 74.7922 24.4371 73.5484 24.9572C72.3272 25.4774 70.8911 25.7375 69.2403 25.7375ZM88.8847 25.7375C87.0755 25.7375 85.4699 25.4435 84.0677 24.8555C82.6882 24.2675 81.5914 23.4534 80.7773 22.4131C79.9631 21.3728 79.4995 20.1968 79.3865 18.8852H86.6119C86.7024 19.4505 86.9398 19.8689 87.3243 20.1403C87.7313 20.4117 88.2402 20.5473 88.8508 20.5473C89.2352 20.5473 89.5405 20.4682 89.7667 20.3099C89.9928 20.129 90.1059 19.9141 90.1059 19.6654C90.1059 19.2357 89.8685 18.9304 89.3935 18.7495C88.9186 18.5685 88.1158 18.365 86.9851 18.1389C85.6056 17.8675 84.4635 17.5735 83.5589 17.2569C82.6769 16.9403 81.8967 16.3975 81.2183 15.6286C80.5624 14.8597 80.2345 13.7968 80.2345 12.4399C80.2345 11.2639 80.5398 10.201 81.1504 9.25122C81.7836 8.27878 82.7108 7.52119 83.9321 6.97843C85.1533 6.41306 86.6345 6.13037 88.3759 6.13037C90.954 6.13037 92.9667 6.76359 94.414 8.03002C95.884 9.29645 96.766 10.9473 97.06 12.9827H90.3773C90.2642 12.4625 90.0268 12.0668 89.6649 11.7954C89.3031 11.5014 88.8169 11.3544 88.2063 11.3544C87.8218 11.3544 87.5278 11.4336 87.3243 11.5919C87.1207 11.7275 87.019 11.9424 87.019 12.2364C87.019 12.6208 87.2564 12.9148 87.7313 13.1184C88.2063 13.2993 88.9639 13.4915 90.0041 13.695C91.3836 13.9664 92.5483 14.2717 93.4981 14.6109C94.448 14.9502 95.2734 15.5382 95.9745 16.3749C96.6755 17.189 97.0261 18.3198 97.0261 19.7671C97.0261 20.8979 96.6981 21.9155 96.0423 22.8201C95.3865 23.7247 94.4367 24.4371 93.1928 24.9572C91.9716 25.4774 90.5356 25.7375 88.8847 25.7375ZM115.314 25.5L110.904 19.2583L107.24 25.5H98.6578L106.562 13.1184L98.3186 1.48302H107.24L111.48 7.48726L115.008 1.48302H123.591L115.822 13.6272L124.235 25.5H115.314Z" fill="url(#paint0_linear_37_235)"/>
<defs>
<linearGradient id="paint0_linear_37_235" x1="-0.5" y1="14.5" x2="124.5" y2="14.5" gradientUnits="userSpaceOnUse">
<stop stop-color="#891DCC"/>
<stop offset="1" stop-color="#C01DCC"/>
</linearGradient>
</defs>
</svg>
