<svg width="314" height="163" viewBox="0 0 314 163" fill="none" xmlns="http://www.w3.org/2000/svg">
<path d="M0.750076 81.6933C0.750076 65.9431 3.90011 51.918 10.2002 39.6178C16.6503 27.3177 25.8004 17.7926 37.6505 11.0425C49.5006 4.14245 63.4508 0.692406 79.501 0.692406C93.3011 0.692406 105.601 3.31744 116.401 8.5675C127.352 13.6676 136.202 20.9426 142.952 30.3927C149.852 39.8428 154.427 50.868 156.677 63.4681H104.026C101.626 58.2181 98.1762 54.168 93.6761 51.318C89.3261 48.3179 84.301 46.8179 78.601 46.8179C70.2009 46.8179 63.5258 49.968 58.5757 56.268C53.7757 62.5681 51.3756 71.0432 51.3756 81.6933C51.3756 92.3434 53.7757 100.819 58.5757 107.119C63.5258 113.419 70.2009 116.569 78.601 116.569C84.301 116.569 89.3261 115.144 93.6761 112.294C98.1762 109.294 101.626 105.169 104.026 99.9185H156.677C154.427 112.519 149.852 123.544 142.952 132.994C136.202 142.444 127.352 149.794 116.401 155.044C105.601 160.144 93.3011 162.694 79.501 162.694C63.4508 162.694 49.5006 159.319 37.6505 152.569C25.8004 145.669 16.6503 136.069 10.2002 123.769C3.90011 111.469 0.750076 97.4435 0.750076 81.6933ZM257.912 161.569L236.537 132.994L220.562 161.569H165.661L208.187 94.7435L163.411 34.6678H219.212L240.587 63.4681L256.787 34.6678H311.688L267.812 99.9185L313.713 161.569H257.912Z" fill="url(#paint0_linear_117_2)"/>
<defs>
<linearGradient id="paint0_linear_117_2" x1="-6" y1="85.8829" x2="314" y2="85.8829" gradientUnits="userSpaceOnUse">
<stop stop-color="#891DCC"/>
<stop offset="1" stop-color="#C01DCC"/>
</linearGradient>
</defs>
</svg>
