<svg width="28" height="29" viewBox="0 0 28 29" fill="none" xmlns="http://www.w3.org/2000/svg">
<path d="M14.1167 22.1417L14 22.2583L13.8717 22.1417C8.33001 17.1133 4.66668 13.7883 4.66668 10.4167C4.66668 8.08333 6.41668 6.33333 8.75001 6.33333C10.5467 6.33333 12.2967 7.5 12.915 9.08667H15.085C15.7033 7.5 17.4533 6.33333 19.25 6.33333C21.5833 6.33333 23.3333 8.08333 23.3333 10.4167C23.3333 13.7883 19.67 17.1133 14.1167 22.1417ZM19.25 4C17.22 4 15.2717 4.945 14 6.42667C12.7283 4.945 10.78 4 8.75001 4C5.15668 4 2.33334 6.81167 2.33334 10.4167C2.33334 14.815 6.30001 18.42 12.3083 23.8683L14 25.4083L15.6917 23.8683C21.7 18.42 25.6667 14.815 25.6667 10.4167C25.6667 6.81167 22.8433 4 19.25 4Z" fill="#F8F8F8"/>
</svg>
