<svg width="28" height="28" viewBox="0 0 28 28" fill="none" xmlns="http://www.w3.org/2000/svg">
<path d="M14.0001 5.36083C12.7289 4.19196 11.065 3.54322 9.33806 3.54317C8.42402 3.54412 7.5192 3.72582 6.67565 4.07781C5.83211 4.42981 5.0665 4.94514 4.42289 5.59417C1.67773 8.351 1.67889 12.663 4.42523 15.4082L12.9792 23.9622C13.1776 24.311 13.5602 24.5362 14.0001 24.5362C14.1807 24.5344 14.3583 24.4903 14.5188 24.4075C14.6793 24.3246 14.8181 24.2052 14.9241 24.059L23.5749 15.4082C26.3212 12.6618 26.3212 8.351 23.5726 5.5895C22.9293 4.94167 22.1643 4.42738 21.3216 4.0762C20.4788 3.72502 19.575 3.54387 18.6621 3.54317C16.9352 3.54345 15.2714 4.19215 14.0001 5.36083ZM21.9229 7.23917C23.7464 9.072 23.7476 11.935 21.9252 13.7585L14.0001 21.6837L6.07489 13.7585C4.25256 11.935 4.25373 9.072 6.07256 7.24383C6.95923 6.36183 8.11889 5.8765 9.33806 5.8765C10.5572 5.8765 11.7122 6.36183 12.5919 7.2415L13.1752 7.82483C13.2835 7.93327 13.412 8.0193 13.5536 8.07799C13.6951 8.13669 13.8468 8.1669 14.0001 8.1669C14.1533 8.1669 14.305 8.13669 14.4465 8.07799C14.5881 8.0193 14.7166 7.93327 14.8249 7.82483L15.4082 7.2415C17.1722 5.481 20.1612 5.48567 21.9229 7.23917Z" fill="#F8F8F8"/>
</svg>
