<svg width="24" height="24" viewBox="0 0 24 24" fill="none" xmlns="http://www.w3.org/2000/svg">
<path fill-rule="evenodd" clip-rule="evenodd" d="M9 1C6.23858 1 4 3.23858 4 6V18C4 20.7614 6.23858 23 9 23H16.33C19.0914 23 21.33 20.7614 21.33 18V6C21.33 3.23858 19.0914 1 16.33 1H9ZM9 5.98914C8.58579 5.98914 8.25 6.32492 8.25 6.73914C8.25 7.15335 8.58579 7.48914 9 7.48914H17C17.4142 7.48914 17.75 7.15335 17.75 6.73914C17.75 6.32492 17.4142 5.98914 17 5.98914H9ZM6.75001 19.165C6.75493 19.5781 6.42467 19.9177 6.01127 19.9238C5.5971 19.93 5.25634 19.5993 5.25014 19.1851L6.00006 19.1739C5.25014 19.1851 5.25014 19.1848 5.25014 19.1845L5.25013 19.1839L5.25011 19.1823L5.25007 19.1785L5.25001 19.1676L5.25016 19.1336C5.25046 19.1058 5.25125 19.0676 5.25313 19.0206C5.25689 18.9267 5.26506 18.7963 5.28266 18.641C5.3174 18.3347 5.39103 17.9123 5.55142 17.4788C5.71085 17.048 5.97065 16.5668 6.40146 16.1889C6.84728 15.7978 7.43546 15.5543 8.16673 15.5543H14.7208H17.7339H18.6589H18.9117H18.9775H18.9943H18.9986H18.9992H18.9996H18.9999L19 16.3043L18.9999 17.0543H18.9996H18.9992H18.9986H18.9943H18.9775H18.9117H18.6589H17.7339H14.7208H8.16673C7.79321 17.0543 7.55816 17.1696 7.39059 17.3165C7.208 17.4767 7.06423 17.7129 6.95819 17.9994C6.85311 18.2834 6.79937 18.5784 6.77311 18.81C6.7602 18.9239 6.75446 19.0176 6.75193 19.0806C6.75067 19.112 6.75023 19.1355 6.75007 19.1497L6.75 19.1638L6.75 19.1645L6.75001 19.165ZM19 16.3043V15.5543C19.4142 15.5543 19.75 15.8901 19.75 16.3043C19.75 16.7186 19.4142 17.0543 19 17.0543V16.3043ZM9 9.25C8.58579 9.25 8.25 9.58579 8.25 10C8.25 10.4142 8.58579 10.75 9 10.75H14C14.4142 10.75 14.75 10.4142 14.75 10C14.75 9.58579 14.4142 9.25 14 9.25H9Z" fill="white"/>
</svg>
