<svg width="25" height="25" viewBox="0 0 25 25" fill="none" xmlns="http://www.w3.org/2000/svg">
<path fill-rule="evenodd" clip-rule="evenodd" d="M12.5 4.94794C11.5082 4.94794 10.5262 5.14328 9.6099 5.5228C8.69364 5.90233 7.86111 6.45862 7.15983 7.15989C6.45855 7.86117 5.90227 8.6937 5.52274 9.60996C5.14322 10.5262 4.94788 11.5083 4.94788 12.5C4.94788 13.4918 5.14322 14.4738 5.52274 15.3901C5.90227 16.3063 6.45855 17.1389 7.15983 17.8401C7.86111 18.5414 8.69364 19.0977 9.6099 19.4772C10.5262 19.8568 11.5082 20.0521 12.5 20.0521C14.5029 20.0521 16.4238 19.2564 17.8401 17.8401C19.2564 16.4239 20.052 14.503 20.052 12.5C20.052 10.4971 19.2564 8.57618 17.8401 7.15989C16.4238 5.7436 14.5029 4.94794 12.5 4.94794ZM3.38538 12.5C3.38538 10.0827 4.34566 7.76435 6.05498 6.05504C7.76429 4.34572 10.0826 3.38544 12.5 3.38544C14.9173 3.38544 17.2356 4.34572 18.9449 6.05504C20.6543 7.76435 21.6145 10.0827 21.6145 12.5C21.6145 14.9174 20.6543 17.2357 18.9449 18.945C17.2356 20.6543 14.9173 21.6146 12.5 21.6146C10.0826 21.6146 7.76429 20.6543 6.05498 18.945C4.34566 17.2357 3.38538 14.9174 3.38538 12.5Z" fill="white"/>
<path fill-rule="evenodd" clip-rule="evenodd" d="M11.3021 9.69688C10.3297 10.4966 9.67986 11.6216 9.47293 12.8635L9.01668 15.6063C8.78023 17.0313 10.4365 17.9865 11.5511 17.0698L13.6979 15.3031C14.6704 14.5034 15.3202 13.3784 15.5271 12.1365L15.9834 9.39375C16.2198 7.96875 14.5636 7.01354 13.449 7.93021L11.3021 9.69688ZM12.5 10.9375C12.0856 10.9375 11.6882 11.1021 11.3952 11.3951C11.1021 11.6882 10.9375 12.0856 10.9375 12.5C10.9375 12.9144 11.1021 13.3118 11.3952 13.6049C11.6882 13.8979 12.0856 14.0625 12.5 14.0625C12.9144 14.0625 13.3118 13.8979 13.6049 13.6049C13.8979 13.3118 14.0625 12.9144 14.0625 12.5C14.0625 12.0856 13.8979 11.6882 13.6049 11.3951C13.3118 11.1021 12.9144 10.9375 12.5 10.9375Z" fill="white"/>
</svg>
