<svg width="25" height="25" viewBox="0 0 25 25" fill="none" xmlns="http://www.w3.org/2000/svg">
<path fill-rule="evenodd" clip-rule="evenodd" d="M13.115 21.23C18.1491 21.23 22.23 17.1491 22.23 12.115C22.23 7.08092 18.1491 3 13.115 3C8.08092 3 4 7.08092 4 12.115C4 17.1491 8.08092 21.23 13.115 21.23ZM10.479 12.2941C10.686 11.0521 11.3358 9.92718 12.3082 9.12742L14.4551 7.36075C15.5697 6.44408 17.2259 7.39929 16.9895 8.82429L16.5332 11.567C16.3263 12.809 15.6765 13.9339 14.704 14.7337L12.5572 16.5003C11.4426 17.417 9.78633 16.4618 10.0228 15.0368L10.479 12.2941ZM12.4013 10.8257C12.6943 10.5327 13.0917 10.368 13.5061 10.368C13.9205 10.368 14.318 10.5327 14.611 10.8257C14.904 11.1187 15.0686 11.5161 15.0686 11.9305C15.0686 12.3449 14.904 12.7424 14.611 13.0354C14.318 13.3284 13.9205 13.493 13.5061 13.493C13.0917 13.493 12.6943 13.3284 12.4013 13.0354C12.1082 12.7424 11.9436 12.3449 11.9436 11.9305C11.9436 11.5161 12.1082 11.1187 12.4013 10.8257Z" fill="white"/>
</svg>
