<svg width="19" height="25" viewBox="0 0 19 25" fill="none" xmlns="http://www.w3.org/2000/svg">
<path fill-rule="evenodd" clip-rule="evenodd" d="M4.25 6C2.04086 6 0.25 7.79086 0.25 10V15C0.25 17.2091 2.04086 19 4.25 19H14.75C16.9591 19 18.75 17.2091 18.75 15V10C18.75 7.79086 16.9591 6 14.75 6H4.25ZM2.3808 9.40384C1.86746 9.20014 1.28618 9.45115 1.08247 9.96449C0.878765 10.4778 1.12978 11.0591 1.64312 11.2628L2.01196 10.3333C1.64312 11.2628 1.64318 11.2628 1.64326 11.2629L1.64355 11.263L1.64458 11.2634L1.64842 11.2649L1.66306 11.2707L1.71931 11.2929C1.76844 11.3123 1.84036 11.3405 1.93222 11.3764C2.1159 11.4482 2.37943 11.5506 2.69989 11.6734C3.34032 11.9188 4.21038 12.2465 5.12611 12.5747C6.03962 12.9021 7.00897 13.2338 7.84499 13.4848C8.2625 13.6102 8.6576 13.7188 9.00195 13.7969C9.32716 13.8706 9.67448 13.9333 9.96806 13.9333C10.268 13.9333 10.6045 13.8685 10.9125 13.7925C11.2369 13.7124 11.5998 13.6016 11.9764 13.4748C12.7302 13.221 13.5867 12.8867 14.3852 12.5581C15.1862 12.2285 15.941 11.8995 16.4948 11.6534C16.772 11.5302 16.9995 11.4274 17.1581 11.3553C17.2374 11.3193 17.2995 11.2908 17.342 11.2713L17.3907 11.2489L17.4035 11.243L17.4069 11.2414L17.4078 11.241L17.4081 11.2409C17.4082 11.2408 17.4083 11.2408 16.9882 10.3333L17.4083 11.2408C17.9095 11.0088 18.1276 10.4144 17.8956 9.91321C17.6636 9.41203 17.0692 9.19384 16.568 9.42586L16.5679 9.4259L16.5674 9.42618L16.5646 9.42743L16.5533 9.43268L16.5075 9.45374C16.467 9.47232 16.4071 9.49976 16.3301 9.53479C16.176 9.60485 15.9538 9.70522 15.6826 9.82577C15.1395 10.0671 14.4026 10.3882 13.6241 10.7086C12.843 11.03 12.0322 11.3457 11.3382 11.5794C10.9908 11.6963 10.6846 11.7887 10.4331 11.8508C10.1653 11.9169 10.0191 11.9333 9.96806 11.9333C9.91065 11.9333 9.74608 11.9148 9.44423 11.8464C9.16153 11.7823 8.81441 11.6877 8.42021 11.5693C7.63284 11.3329 6.70091 11.0146 5.80091 10.692C4.90311 10.3702 4.04739 10.0479 3.41544 9.80578C3.0997 9.68481 2.84038 9.58406 2.66026 9.51366C2.57022 9.47847 2.5 9.45087 2.45247 9.43215L2.39854 9.41086L2.38502 9.40551L2.38173 9.40421L2.38097 9.40391L2.38081 9.40384L2.01196 10.3333L2.3808 9.40384Z" fill="white"/>
</svg>
