<svg width="24" height="24" viewBox="0 0 24 24" fill="none" xmlns="http://www.w3.org/2000/svg">
<path fill-rule="evenodd" clip-rule="evenodd" d="M12 22C17.5228 22 22 17.5228 22 12C22 6.47715 17.5228 2 12 2C6.47715 2 2 6.47715 2 12C2 17.5228 6.47715 22 12 22ZM16.75 11.875C16.75 12.1734 16.6315 12.4595 16.4205 12.6705C16.2095 12.8815 15.9234 13 15.625 13H13V15.625C13 15.9234 12.8815 16.2095 12.6705 16.4205C12.4595 16.6315 12.1734 16.75 11.875 16.75C11.5766 16.75 11.2905 16.6315 11.0795 16.4205C10.8685 16.2095 10.75 15.9234 10.75 15.625V13H8.125C7.82663 13 7.54048 12.8815 7.3295 12.6705C7.11853 12.4595 7 12.1734 7 11.875C7 11.5766 7.11853 11.2905 7.3295 11.0795C7.54048 10.8685 7.82663 10.75 8.125 10.75H10.75V8.125C10.75 7.82663 10.8685 7.54048 11.0795 7.3295C11.2905 7.11853 11.5766 7 11.875 7C12.1734 7 12.4595 7.11853 12.6705 7.3295C12.8815 7.54048 13 7.82663 13 8.125V10.75H15.625C15.9234 10.75 16.2095 10.8685 16.4205 11.0795C16.6315 11.2905 16.75 11.5766 16.75 11.875Z" fill="white"/>
</svg>
