<svg width="24" height="25" viewBox="0 0 24 25" fill="none" xmlns="http://www.w3.org/2000/svg">
<path d="M4 8.5C4 5.672 4 4.257 4.879 3.379C5.757 2.5 7.172 2.5 10 2.5H14C16.828 2.5 18.243 2.5 19.121 3.379C20 4.257 20 5.672 20 8.5V16.5C20 19.328 20 20.743 19.121 21.621C18.243 22.5 16.828 22.5 14 22.5H10C7.172 22.5 5.757 22.5 4.879 21.621C4 20.743 4 19.328 4 16.5V8.5Z" stroke="#F8F8F8" stroke-width="1.5"/>
<path d="M19.898 16.5H7.898C6.968 16.5 6.503 16.5 6.121 16.602C5.61231 16.7384 5.14849 17.0063 4.77618 17.3788C4.40386 17.7513 4.13616 18.2152 4 18.724" stroke="#F8F8F8" stroke-width="1.5"/>
<path d="M8 7.5H16M8 11H13" stroke="#F8F8F8" stroke-width="1.5" stroke-linecap="round"/>
</svg>
