<svg width="25" height="25" viewBox="0 0 25 25" fill="none" xmlns="http://www.w3.org/2000/svg">
<path fill-rule="evenodd" clip-rule="evenodd" d="M12.5 4.94792C11.5083 4.94792 10.5262 5.14326 9.60996 5.52279C8.6937 5.90232 7.86117 6.4586 7.15989 7.15988C6.45861 7.86115 5.90233 8.69369 5.5228 9.60995C5.14328 10.5262 4.94794 11.5083 4.94794 12.5C4.94794 13.4918 5.14328 14.4738 5.5228 15.3901C5.90233 16.3063 6.45861 17.1389 7.15989 17.8401C7.86117 18.5414 8.6937 19.0977 9.60996 19.4772C10.5262 19.8567 11.5083 20.0521 12.5 20.0521C14.503 20.0521 16.4239 19.2564 17.8401 17.8401C19.2564 16.4238 20.0521 14.5029 20.0521 12.5C20.0521 10.4971 19.2564 8.57617 17.8401 7.15988C16.4239 5.74359 14.503 4.94792 12.5 4.94792ZM3.38544 12.5C3.38544 10.0827 4.34572 7.76434 6.05504 6.05502C7.76435 4.34571 10.0827 3.38542 12.5 3.38542C14.9174 3.38542 17.2357 4.34571 18.945 6.05502C20.6543 7.76434 21.6146 10.0827 21.6146 12.5C21.6146 14.9173 20.6543 17.2357 18.945 18.945C17.2357 20.6543 14.9174 21.6146 12.5 21.6146C10.0827 21.6146 7.76435 20.6543 6.05504 18.945C4.34572 17.2357 3.38544 14.9173 3.38544 12.5Z" fill="white"/>
<path fill-rule="evenodd" clip-rule="evenodd" d="M11.3021 9.69688C10.3297 10.4966 9.67986 11.6216 9.47293 12.8635L9.01668 15.6063C8.78023 17.0313 10.4365 17.9865 11.5511 17.0698L13.6979 15.3031C14.6704 14.5034 15.3202 13.3784 15.5271 12.1365L15.9834 9.39375C16.2198 7.96875 14.5636 7.01354 13.449 7.93021L11.3021 9.69688ZM12.5 10.9375C12.0856 10.9375 11.6882 11.1021 11.3952 11.3951C11.1021 11.6882 10.9375 12.0856 10.9375 12.5C10.9375 12.9144 11.1021 13.3118 11.3952 13.6049C11.6882 13.8979 12.0856 14.0625 12.5 14.0625C12.9144 14.0625 13.3118 13.8979 13.6049 13.6049C13.8979 13.3118 14.0625 12.9144 14.0625 12.5C14.0625 12.0856 13.8979 11.6882 13.6049 11.3951C13.3118 11.1021 12.9144 10.9375 12.5 10.9375Z" fill="white"/>
</svg>
