<svg width="24" height="25" viewBox="0 0 24 25" fill="none" xmlns="http://www.w3.org/2000/svg">
<path d="M4 11.952V17.3C4 18.42 4 18.98 4.218 19.409C4.41 19.785 4.715 20.091 5.092 20.282C5.519 20.5 6.079 20.5 7.197 20.5H16.803C17.921 20.5 18.48 20.5 18.907 20.282C19.2835 20.0907 19.5898 19.7851 19.782 19.409C20 18.981 20 18.422 20 17.304V11.952C20 11.418 20 11.151 19.935 10.902C19.8775 10.6819 19.7828 10.4732 19.655 10.285C19.51 10.072 19.31 9.895 18.907 9.544L14.107 5.344C13.361 4.691 12.987 4.364 12.567 4.24C12.197 4.13 11.803 4.13 11.432 4.24C11.012 4.364 10.64 4.69 9.894 5.342L5.093 9.544C4.691 9.896 4.49 10.072 4.346 10.284C4.2178 10.4725 4.12276 10.6815 4.065 10.902C4 11.15 4 11.418 4 11.952Z" stroke="white" stroke-width="2" stroke-linecap="round" stroke-linejoin="round"/>
</svg>
