<svg width="24" height="25" viewBox="0 0 24 25" fill="none" xmlns="http://www.w3.org/2000/svg">
<path d="M4 18.5C4 17.4391 4.42143 16.4217 5.17157 15.6716C5.92172 14.9214 6.93913 14.5 8 14.5H16C17.0609 14.5 18.0783 14.9214 18.8284 15.6716C19.5786 16.4217 20 17.4391 20 18.5C20 19.0304 19.7893 19.5391 19.4142 19.9142C19.0391 20.2893 18.5304 20.5 18 20.5H6C5.46957 20.5 4.96086 20.2893 4.58579 19.9142C4.21071 19.5391 4 19.0304 4 18.5Z" stroke="#F8F8F8" stroke-width="1.5" stroke-linejoin="round"/>
<path d="M12 10.5C13.6569 10.5 15 9.15685 15 7.5C15 5.84315 13.6569 4.5 12 4.5C10.3431 4.5 9 5.84315 9 7.5C9 9.15685 10.3431 10.5 12 10.5Z" stroke="#F8F8F8" stroke-width="1.5"/>
</svg>
