<svg width="31" height="29" viewBox="0 0 31 29" fill="none" xmlns="http://www.w3.org/2000/svg">
<g clip-path="url(#clip0_286_118)">
<path d="M21.4855 9.75363L6.46148 11.6945C5.19918 11.8564 4.44685 13.2725 5.26486 13.9477L9.5222 17.4902C9.69686 17.6382 9.80463 17.8249 9.84549 18.0502L10.7847 23.5084C10.9605 24.5545 12.563 24.6109 13.3344 23.5987L22.5273 11.5579C22.6833 11.3512 22.7812 11.1227 22.8107 10.8964C22.8402 10.6702 22.8002 10.4545 22.6949 10.2721C22.5896 10.0897 22.4228 9.94717 22.2121 9.85959C22.0014 9.77202 21.7546 9.74258 21.4975 9.77436L21.4855 9.75363Z" fill="#9747FF"/>
</g>
<defs>
<clipPath id="clip0_286_118">
<rect width="23.174" height="19.1578" fill="white" transform="translate(0.5 11.9979) rotate(-30)"/>
</clipPath>
</defs>
</svg>
